MetaBlum_3.ufo
<glyph name="A" format="1">
  <advance width="560"/>
  <unicode hex="0041"/>
  <outline>
    <contour>
      <point x="208" y="1628" type="curve" smooth="yes"/>
      <point x="211" y="1628"/>
      <point x="215" y="1629"/>
      <point x="216" y="1629" type="curve" smooth="yes"/>
      <point x="219" y="1629"/>
      <point x="224" y="1626"/>
      <point x="224" y="1624" type="curve"/>
      <point x="225" y="1623"/>
      <point x="258" y="1262"/>
      <point x="300" y="822" type="curve"/>
      <point x="361" y="159"/>
      <point x="374" y="21"/>
      <point x="373" y="19" type="curve" smooth="yes"/>
      <point x="371" y="14"/>
      <point x="361" y="2"/>
      <point x="350" y="-5" type="curve" smooth="yes"/>
      <point x="332" y="-18"/>
      <point x="312" y="-27"/>
      <point x="298" y="-28" type="curve" smooth="yes"/>
      <point x="289" y="-28"/>
      <point x="286" y="-27"/>
      <point x="285" y="-23" type="curve" smooth="yes"/>
      <point x="285" y="-22"/>
      <point x="271" y="132"/>
      <point x="253" y="318" type="curve" smooth="yes"/>
      <point x="221" y="657" type="line"/>
      <point x="178" y="657" type="line" smooth="yes"/>
      <point x="136" y="657"/>
      <point x="134" y="657"/>
      <point x="134" y="655" type="curve" smooth="yes"/>
      <point x="134" y="649"/>
      <point x="75" y="21"/>
      <point x="74" y="18" type="curve" smooth="yes"/>
      <point x="72" y="14"/>
      <point x="61" y="2"/>
      <point x="51" y="-5" type="curve" smooth="yes"/>
      <point x="32" y="-18"/>
      <point x="13" y="-27"/>
      <point x="-1" y="-28" type="curve" smooth="yes"/>
      <point x="-9" y="-28"/>
      <point x="-10" y="-28"/>
      <point x="-12" y="-26" type="curve" smooth="yes"/>
      <point x="-13" y="-25"/>
      <point x="-14" y="-23"/>
      <point x="-14" y="-22" type="curve" smooth="yes"/>
      <point x="-14" y="-21"/>
      <point x="20" y="340"/>
      <point x="61" y="780" type="curve" smooth="yes"/>
      <point x="128" y="1500"/>
      <point x="136" y="1580"/>
      <point x="138" y="1584" type="curve" smooth="yes"/>
      <point x="141" y="1589"/>
      <point x="154" y="1601"/>
      <point x="164" y="1608" type="curve" smooth="yes"/>
      <point x="179" y="1618"/>
      <point x="197" y="1626"/>
    </contour>
    <contour>
      <point x="197" y="919" type="curve" smooth="yes"/>
      <point x="187" y="1026"/>
      <point x="179" y="1115"/>
      <point x="178" y="1116" type="curve"/>
      <point x="178" y="1118"/>
      <point x="170" y="1039"/>
      <point x="159" y="917" type="curve" smooth="yes"/>
      <point x="148" y="806"/>
      <point x="140" y="715"/>
      <point x="140" y="715" type="curve" smooth="yes"/>
      <point x="140" y="714"/>
      <point x="157" y="714"/>
      <point x="178" y="714" type="curve" smooth="yes"/>
      <point x="216" y="714" type="line"/>
      <point x="216" y="719" type="line"/>
      <point x="215" y="722"/>
      <point x="207" y="812"/>
    </contour>
  </outline>
</glyph>
<glyph name="B" format="1">
  <advance width="680"/>
  <unicode hex="0042"/>
  <outline>
    <contour>
      <point x="134" y="1628" type="curve" smooth="yes"/>
      <point x="142" y="1630"/>
      <point x="145" y="1629"/>
      <point x="153" y="1623" type="curve" smooth="yes"/>
      <point x="266" y="1535"/>
      <point x="345" y="1401"/>
      <point x="367" y="1259" type="curve"/>
      <point x="394" y="1095"/>
      <point x="350" y="928"/>
      <point x="245" y="796" type="curve" smooth="yes"/>
      <point x="224" y="770"/>
      <point x="195" y="739"/>
      <point x="174" y="720" type="curve"/>
      <point x="164" y="712" type="line"/>
      <point x="168" y="711" type="line"/>
      <point x="243" y="697"/>
      <point x="308" y="663"/>
      <point x="360" y="611" type="curve" smooth="yes"/>
      <point x="390" y="581"/>
      <point x="410" y="553"/>
      <point x="428" y="516" type="curve"/>
      <point x="448" y="478"/>
      <point x="459" y="440"/>
      <point x="464" y="396" type="curve" smooth="yes"/>
      <point x="466" y="381"/>
      <point x="466" y="335"/>
      <point x="464" y="321" type="curve" smooth="yes"/>
      <point x="451" y="214"/>
      <point x="401" y="129"/>
      <point x="313" y="62" type="curve"/>
      <point x="241" y="9"/>
      <point x="157" y="-24"/>
      <point x="79" y="-28" type="curve" smooth="yes"/>
      <point x="67" y="-28"/>
      <point x="66" y="-28"/>
      <point x="64" y="-26" type="curve" smooth="yes"/>
      <point x="61" y="-24" type="line"/>
      <point x="61" y="778" type="line"/>
      <point x="61" y="1580" type="line"/>
      <point x="64" y="1585" type="line" smooth="yes"/>
      <point x="73" y="1601"/>
      <point x="109" y="1623"/>
    </contour>
    <contour>
      <point x="160" y="1479" type="curve" smooth="yes"/>
      <point x="155" y="1485"/>
      <point x="151" y="1490"/>
      <point x="150" y="1490" type="curve"/>
      <point x="150" y="1122" type="line"/>
      <point x="150" y="754" type="line"/>
      <point x="153" y="757" type="line" smooth="yes"/>
      <point x="155" y="759"/>
      <point x="161" y="766"/>
      <point x="166" y="773" type="curve" smooth="yes"/>
      <point x="215" y="833"/>
      <point x="252" y="909"/>
      <point x="270" y="988" type="curve"/>
      <point x="290" y="1071"/>
      <point x="291" y="1160"/>
      <point x="272" y="1243" type="curve"/>
      <point x="253" y="1331"/>
      <point x="216" y="1407"/>
    </contour>
    <contour>
      <point x="159" y="635" type="curve" smooth="yes"/>
      <point x="154" y="637"/>
      <point x="151" y="638"/>
      <point x="150" y="638" type="curve"/>
      <point x="150" y="334" type="line"/>
      <point x="150" y="30" type="line"/>
      <point x="153" y="30" type="line" smooth="yes"/>
      <point x="159" y="30"/>
      <point x="183" y="34"/>
      <point x="196" y="37" type="curve" smooth="yes"/>
      <point x="234" y="46"/>
      <point x="262" y="62"/>
      <point x="290" y="89" type="curve"/>
      <point x="304" y="104"/>
      <point x="312" y="114"/>
      <point x="323" y="131" type="curve" smooth="yes"/>
      <point x="352" y="174"/>
      <point x="368" y="219"/>
      <point x="375" y="277" type="curve" smooth="yes"/>
      <point x="377" y="291"/>
      <point x="377" y="334"/>
      <point x="375" y="349" type="curve" smooth="yes"/>
      <point x="368" y="410"/>
      <point x="348" y="464"/>
      <point x="314" y="512" type="curve" smooth="yes"/>
      <point x="275" y="567"/>
      <point x="220" y="610"/>
    </contour>
  </outline>
</glyph>
<glyph name="C" format="1">
  <advance width="650"/>
  <unicode hex="0043"/>
  <outline>
    <contour>
      <point x="236" y="1838" type="curve" smooth="yes"/>
      <point x="244" y="1839"/>
      <point x="293" y="1838"/>
      <point x="302" y="1837" type="curve" smooth="yes"/>
      <point x="432" y="1821"/>
      <point x="539" y="1742"/>
      <point x="594" y="1619" type="curve"/>
      <point x="610" y="1586"/>
      <point x="619" y="1554"/>
      <point x="624" y="1516" type="curve" smooth="yes"/>
      <point x="626" y="1498"/>
      <point x="626" y="1452"/>
      <point x="624" y="1434" type="curve" smooth="yes"/>
      <point x="616" y="1374"/>
      <point x="596" y="1322"/>
      <point x="564" y="1274" type="curve" smooth="yes"/>
      <point x="528" y="1221"/>
      <point x="480" y="1176"/>
      <point x="417" y="1139" type="curve" smooth="yes"/>
      <point x="389" y="1123"/>
      <point x="370" y="1115"/>
      <point x="357" y="1114" type="curve" smooth="yes"/>
      <point x="351" y="1114"/>
      <point x="350" y="1114"/>
      <point x="348" y="1116" type="curve" smooth="yes"/>
      <point x="345" y="1119"/>
      <point x="345" y="1119"/>
      <point x="346" y="1123" type="curve" smooth="yes"/>
      <point x="348" y="1129"/>
      <point x="360" y="1141"/>
      <point x="371" y="1149" type="curve" smooth="yes"/>
      <point x="376" y="1152"/>
      <point x="385" y="1158"/>
      <point x="392" y="1161" type="curve" smooth="yes"/>
      <point x="414" y="1173"/>
      <point x="428" y="1184"/>
      <point x="446" y="1202" type="curve" smooth="yes"/>
      <point x="488" y="1244"/>
      <point x="519" y="1303"/>
      <point x="530" y="1364" type="curve" smooth="yes"/>
      <point x="535" y="1389"/>
      <point x="536" y="1401"/>
      <point x="536" y="1430" type="curve" smooth="yes"/>
      <point x="536" y="1458"/>
      <point x="535" y="1470"/>
      <point x="530" y="1495" type="curve" smooth="yes"/>
      <point x="513" y="1586"/>
      <point x="455" y="1672"/>
      <point x="378" y="1724" type="curve" smooth="yes"/>
      <point x="331" y="1755"/>
      <point x="283" y="1773"/>
      <point x="224" y="1780" type="curve" smooth="yes"/>
      <point x="210" y="1782"/>
      <point x="169" y="1782"/>
      <point x="157" y="1780" type="curve" smooth="yes"/>
      <point x="119" y="1775"/>
      <point x="85" y="1764"/>
      <point x="63" y="1749" type="curve" smooth="yes"/>
      <point x="16" y="1718"/>
      <point x="-23" y="1650"/>
      <point x="-32" y="1584" type="curve" smooth="yes"/>
      <point x="-35" y="1568"/>
      <point x="-35" y="1545"/>
      <point x="-34" y="1529" type="curve" smooth="yes"/>
      <point x="-30" y="1483"/>
      <point x="-17" y="1440"/>
      <point x="11" y="1385" type="curve"/>
      <point x="26" y="1353"/>
      <point x="36" y="1335"/>
      <point x="77" y="1267" type="curve" smooth="yes"/>
      <point x="114" y="1206"/>
      <point x="125" y="1186"/>
      <point x="140" y="1156" type="curve" smooth="yes"/>
      <point x="195" y="1047"/>
      <point x="221" y="930"/>
      <point x="219" y="809" type="curve" smooth="yes"/>
      <point x="218" y="770"/>
      <point x="216" y="745"/>
      <point x="210" y="710" type="curve" smooth="yes"/>
      <point x="202" y="655"/>
      <point x="186" y="596"/>
      <point x="166" y="546" type="curve" smooth="yes"/>
      <point x="145" y="494"/>
      <point x="127" y="460"/>
      <point x="69" y="364" type="curve" smooth="yes"/>
      <point x="33" y="303"/>
      <point x="24" y="288"/>
      <point x="9" y="257" type="curve" smooth="yes"/>
      <point x="-14" y="209"/>
      <point x="-26" y="174"/>
      <point x="-32" y="134" type="curve" smooth="yes"/>
      <point x="-35" y="117"/>
      <point x="-35" y="81"/>
      <point x="-33" y="66" type="curve" smooth="yes"/>
      <point x="-26" y="15"/>
      <point x="-4" y="-35"/>
      <point x="28" y="-75" type="curve" smooth="yes"/>
      <point x="36" y="-86"/>
      <point x="57" y="-107"/>
      <point x="68" y="-115" type="curve" smooth="yes"/>
      <point x="116" y="-154"/>
      <point x="173" y="-176"/>
      <point x="238" y="-181" type="curve" smooth="yes"/>
      <point x="297" y="-186"/>
      <point x="360" y="-172"/>
      <point x="401" y="-145" type="curve" smooth="yes"/>
      <point x="440" y="-119"/>
      <point x="477" y="-75"/>
      <point x="502" y="-23" type="curve"/>
      <point x="520" y="12"/>
      <point x="529" y="44"/>
      <point x="535" y="85" type="curve" smooth="yes"/>
      <point x="537" y="101"/>
      <point x="537" y="145"/>
      <point x="535" y="161" type="curve" smooth="yes"/>
      <point x="530" y="198"/>
      <point x="522" y="229"/>
      <point x="509" y="261" type="curve" smooth="yes"/>
      <point x="488" y="310"/>
      <point x="453" y="356"/>
      <point x="410" y="391" type="curve" smooth="yes"/>
      <point x="397" y="401"/>
      <point x="372" y="418"/>
      <point x="359" y="424" type="curve"/>
      <point x="353" y="428"/>
      <point x="347" y="431"/>
      <point x="346" y="432" type="curve" smooth="yes"/>
      <point x="343" y="435"/>
      <point x="346" y="441"/>
      <point x="355" y="450" type="curve" smooth="yes"/>
      <point x="368" y="464"/>
      <point x="391" y="478"/>
      <point x="410" y="483" type="curve" smooth="yes"/>
      <point x="424" y="487"/>
      <point x="427" y="487"/>
      <point x="441" y="479" type="curve" smooth="yes"/>
      <point x="456" y="471"/>
      <point x="481" y="455"/>
      <point x="494" y="445" type="curve" smooth="yes"/>
      <point x="554" y="397"/>
      <point x="597" y="329"/>
      <point x="615" y="255" type="curve" smooth="yes"/>
      <point x="623" y="225"/>
      <point x="626" y="204"/>
      <point x="625" y="169" type="curve" smooth="yes"/>
      <point x="625" y="139"/>
      <point x="624" y="127"/>
      <point x="619" y="101" type="curve" smooth="yes"/>
      <point x="604" y="26"/>
      <point x="562" y="-48"/>
      <point x="503" y="-106" type="curve"/>
      <point x="430" y="-176"/>
      <point x="330" y="-225"/>
      <point x="235" y="-237" type="curve" smooth="yes"/>
      <point x="217" y="-239"/>
      <point x="181" y="-240"/>
      <point x="163" y="-238" type="curve" smooth="yes"/>
      <point x="86" y="-232"/>
      <point x="18" y="-203"/>
      <point x="-34" y="-153" type="curve" smooth="yes"/>
      <point x="-70" y="-119"/>
      <point x="-96" y="-77"/>
      <point x="-112" y="-27" type="curve" smooth="yes"/>
      <point x="-129" y="28"/>
      <point x="-128" y="85"/>
      <point x="-107" y="150" type="curve" smooth="yes"/>
      <point x="-99" y="174"/>
      <point x="-91" y="193"/>
      <point x="-76" y="223" type="curve" smooth="yes"/>
      <point x="-59" y="257"/>
      <point x="-51" y="271"/>
      <point x="-15" y="333" type="curve"/>
      <point x="43" y="429"/>
      <point x="58" y="458"/>
      <point x="79" y="510" type="curve" smooth="yes"/>
      <point x="87" y="528"/>
      <point x="99" y="564"/>
      <point x="104" y="583" type="curve" smooth="yes"/>
      <point x="152" y="758"/>
      <point x="133" y="944"/>
      <point x="52" y="1107" type="curve" smooth="yes"/>
      <point x="38" y="1135"/>
      <point x="26" y="1156"/>
      <point x="-10" y="1216" type="curve" smooth="yes"/>
      <point x="-51" y="1285"/>
      <point x="-61" y="1302"/>
      <point x="-78" y="1336" type="curve" smooth="yes"/>
      <point x="-106" y="1393"/>
      <point x="-119" y="1435"/>
      <point x="-123" y="1482" type="curve" smooth="yes"/>
      <point x="-124" y="1498"/>
      <point x="-124" y="1525"/>
      <point x="-121" y="1540" type="curve" smooth="yes"/>
      <point x="-115" y="1585"/>
      <point x="-95" y="1634"/>
      <point x="-68" y="1672" type="curve" smooth="yes"/>
      <point x="-22" y="1736"/>
      <point x="52" y="1789"/>
      <point x="134" y="1817" type="curve" smooth="yes"/>
      <point x="168" y="1829"/>
      <point x="200" y="1836"/>
    </contour>
  </outline>
</glyph>
<glyph name="D" format="1">
  <advance width="695"/>
  <unicode hex="0044"/>
  <outline>
    <contour>
      <point x="134" y="1628" type="curve" smooth="yes"/>
      <point x="137" y="1628"/>
      <point x="140" y="1629"/>
      <point x="143" y="1629" type="curve" smooth="yes"/>
      <point x="147" y="1628"/>
      <point x="148" y="1627"/>
      <point x="168" y="1603" type="curve" smooth="yes"/>
      <point x="232" y="1527"/>
      <point x="282" y="1452"/>
      <point x="326" y="1363" type="curve"/>
      <point x="362" y="1293"/>
      <point x="387" y="1229"/>
      <point x="407" y="1157" type="curve"/>
      <point x="438" y="1051"/>
      <point x="453" y="950"/>
      <point x="455" y="840" type="curve" smooth="yes"/>
      <point x="459" y="574"/>
      <point x="375" y="314"/>
      <point x="216" y="100" type="curve" smooth="yes"/>
      <point x="192" y="67"/>
      <point x="155" y="23"/>
      <point x="141" y="8" type="curve" smooth="yes"/>
      <point x="119" y="-15"/>
      <point x="74" y="-34"/>
      <point x="64" y="-26" type="curve"/>
      <point x="61" y="-24" type="line"/>
      <point x="61" y="778" type="line"/>
      <point x="61" y="1580" type="line"/>
      <point x="64" y="1585" type="line" smooth="yes"/>
      <point x="73" y="1601"/>
      <point x="109" y="1623"/>
    </contour>
    <contour>
      <point x="162" y="1446" type="curve" smooth="yes"/>
      <point x="156" y="1455"/>
      <point x="151" y="1462"/>
      <point x="150" y="1462" type="curve"/>
      <point x="150" y="778" type="line"/>
      <point x="150" y="94" type="line"/>
      <point x="153" y="98" type="line" smooth="yes"/>
      <point x="160" y="107"/>
      <point x="182" y="142"/>
      <point x="191" y="156" type="curve" smooth="yes"/>
      <point x="278" y="298"/>
      <point x="334" y="456"/>
      <point x="356" y="621" type="curve" smooth="yes"/>
      <point x="381" y="816"/>
      <point x="358" y="1016"/>
      <point x="289" y="1200" type="curve" smooth="yes"/>
      <point x="256" y="1286"/>
      <point x="212" y="1371"/>
    </contour>
  </outline>
</glyph>
<glyph name="E" format="1">
  <advance width="665"/>
  <unicode hex="0045"/>
  <outline>
    <contour>
      <point x="126" y="1626" type="curve" smooth="yes"/>
      <point x="135" y="1629" type="line"/>
      <point x="290" y="1629" type="line" smooth="yes"/>
      <point x="444" y="1629"/>
      <point x="445" y="1629"/>
      <point x="447" y="1627" type="curve" smooth="yes"/>
      <point x="448" y="1626"/>
      <point x="449" y="1624"/>
      <point x="449" y="1623" type="curve" smooth="yes"/>
      <point x="449" y="1612"/>
      <point x="421" y="1589"/>
      <point x="395" y="1579" type="curve" smooth="yes"/>
      <point x="378" y="1572"/>
      <point x="386" y="1572"/>
      <point x="262" y="1572" type="curve" smooth="yes"/>
      <point x="150" y="1572" type="line"/>
      <point x="150" y="1143" type="line"/>
      <point x="150" y="714" type="line"/>
      <point x="260" y="714" type="line"/>
      <point x="370" y="714" type="line"/>
      <point x="373" y="711" type="line" smooth="yes"/>
      <point x="374" y="710"/>
      <point x="375" y="708"/>
      <point x="374" y="707" type="curve" smooth="yes"/>
      <point x="370" y="692"/>
      <point x="341" y="670"/>
      <point x="312" y="660" type="curve"/>
      <point x="305" y="658" type="line"/>
      <point x="227" y="657" type="line"/>
      <point x="150" y="657" type="line"/>
      <point x="150" y="343" type="line"/>
      <point x="150" y="29" type="line"/>
      <point x="298" y="29" type="line" smooth="yes"/>
      <point x="444" y="29"/>
      <point x="445" y="29"/>
      <point x="447" y="27" type="curve" smooth="yes"/>
      <point x="448" y="26"/>
      <point x="449" y="24"/>
      <point x="449" y="23" type="curve" smooth="yes"/>
      <point x="449" y="12"/>
      <point x="421" y="-11"/>
      <point x="395" y="-21" type="curve" smooth="yes"/>
      <point x="378" y="-28"/>
      <point x="391" y="-28"/>
      <point x="220" y="-28" type="curve" smooth="yes"/>
      <point x="66" y="-28" type="line"/>
      <point x="64" y="-26" type="line"/>
      <point x="61" y="-24" type="line"/>
      <point x="61" y="778" type="line" smooth="yes"/>
      <point x="61" y="1485"/>
      <point x="61" y="1579"/>
      <point x="62" y="1583" type="curve"/>
      <point x="65" y="1588"/>
      <point x="78" y="1601"/>
      <point x="89" y="1608" type="curve" smooth="yes"/>
      <point x="101" y="1616"/>
      <point x="115" y="1623"/>
    </contour>
  </outline>
</glyph>
<glyph name="G" format="1">
  <advance width="665"/>
  <unicode hex="0047"/>
  <outline>
    <contour>
      <point x="273" y="1628" type="curve" smooth="yes"/>
      <point x="284" y="1629"/>
      <point x="312" y="1629"/>
      <point x="323" y="1628" type="curve" smooth="yes"/>
      <point x="382" y="1622"/>
      <point x="434" y="1598"/>
      <point x="476" y="1557" type="curve"/>
      <point x="517" y="1515"/>
      <point x="542" y="1464"/>
      <point x="550" y="1404" type="curve" smooth="yes"/>
      <point x="552" y="1390"/>
      <point x="552" y="1351"/>
      <point x="550" y="1337" type="curve" smooth="yes"/>
      <point x="543" y="1291"/>
      <point x="524" y="1248"/>
      <point x="494" y="1211" type="curve" smooth="yes"/>
      <point x="484" y="1198"/>
      <point x="459" y="1173"/>
      <point x="443" y="1161" type="curve" smooth="yes"/>
      <point x="426" y="1147"/>
      <point x="402" y="1131"/>
      <point x="389" y="1125" type="curve" smooth="yes"/>
      <point x="358" y="1109"/>
      <point x="338" y="1111"/>
      <point x="349" y="1128" type="curve" smooth="yes"/>
      <point x="353" y="1135"/>
      <point x="362" y="1142"/>
      <point x="375" y="1151" type="curve" smooth="yes"/>
      <point x="404" y="1171"/>
      <point x="424" y="1194"/>
      <point x="440" y="1227" type="curve" smooth="yes"/>
      <point x="455" y="1256"/>
      <point x="461" y="1283"/>
      <point x="463" y="1319" type="curve" smooth="yes"/>
      <point x="464" y="1349"/>
      <point x="458" y="1385"/>
      <point x="447" y="1414" type="curve" smooth="yes"/>
      <point x="443" y="1427"/>
      <point x="432" y="1449"/>
      <point x="425" y="1460" type="curve" smooth="yes"/>
      <point x="405" y="1492"/>
      <point x="376" y="1521"/>
      <point x="345" y="1539" type="curve"/>
      <point x="313" y="1559"/>
      <point x="275" y="1570"/>
      <point x="234" y="1572" type="curve" smooth="yes"/>
      <point x="202" y="1573"/>
      <point x="155" y="1566"/>
      <point x="133" y="1555" type="curve" smooth="yes"/>
      <point x="127" y="1553"/>
      <point x="124" y="1550"/>
      <point x="118" y="1544" type="curve" smooth="yes"/>
      <point x="82" y="1507"/>
      <point x="64" y="1440"/>
      <point x="66" y="1348" type="curve" smooth="yes"/>
      <point x="68" y="1281"/>
      <point x="74" y="1230"/>
      <point x="100" y="1075" type="curve" smooth="yes"/>
      <point x="123" y="934"/>
      <point x="129" y="886"/>
      <point x="134" y="812" type="curve" smooth="yes"/>
      <point x="136" y="784"/>
      <point x="136" y="714"/>
      <point x="134" y="685" type="curve" smooth="yes"/>
      <point x="131" y="643"/>
      <point x="126" y="597"/>
      <point x="118" y="524" type="curve" smooth="yes"/>
      <point x="101" y="373"/>
      <point x="99" y="337"/>
      <point x="99" y="275" type="curve"/>
      <point x="98" y="215"/>
      <point x="102" y="180"/>
      <point x="113" y="143" type="curve" smooth="yes"/>
      <point x="122" y="113"/>
      <point x="135" y="89"/>
      <point x="154" y="70" type="curve" smooth="yes"/>
      <point x="178" y="46"/>
      <point x="207" y="34"/>
      <point x="250" y="30" type="curve" smooth="yes"/>
      <point x="274" y="28"/>
      <point x="303" y="31"/>
      <point x="316" y="36" type="curve"/>
      <point x="332" y="44"/>
      <point x="356" y="77"/>
      <point x="369" y="112" type="curve" smooth="yes"/>
      <point x="406" y="205"/>
      <point x="395" y="330"/>
      <point x="341" y="443" type="curve" smooth="yes"/>
      <point x="305" y="519"/>
      <point x="261" y="585"/>
      <point x="205" y="651" type="curve" smooth="yes"/>
      <point x="195" y="662"/>
      <point x="194" y="664"/>
      <point x="199" y="671" type="curve" smooth="yes"/>
      <point x="211" y="689"/>
      <point x="250" y="712"/>
      <point x="273" y="714" type="curve"/>
      <point x="280" y="714" type="line"/>
      <point x="285" y="709" type="line" smooth="yes"/>
      <point x="293" y="700"/>
      <point x="314" y="675"/>
      <point x="326" y="660" type="curve" smooth="yes"/>
      <point x="360" y="617"/>
      <point x="387" y="574"/>
      <point x="413" y="526" type="curve"/>
      <point x="438" y="477"/>
      <point x="454" y="438"/>
      <point x="465" y="396" type="curve" smooth="yes"/>
      <point x="493" y="286"/>
      <point x="481" y="177"/>
      <point x="432" y="101" type="curve" smooth="yes"/>
      <point x="391" y="38"/>
      <point x="311" y="-14"/>
      <point x="235" y="-25" type="curve" smooth="yes"/>
      <point x="220" y="-28"/>
      <point x="190" y="-29"/>
      <point x="173" y="-27" type="curve" smooth="yes"/>
      <point x="128" y="-23"/>
      <point x="95" y="-9"/>
      <point x="68" y="17" type="curve"/>
      <point x="35" y="51"/>
      <point x="18" y="98"/>
      <point x="11" y="173" type="curve" smooth="yes"/>
      <point x="9" y="192"/>
      <point x="9" y="265"/>
      <point x="11" y="290" type="curve" smooth="yes"/>
      <point x="14" y="342"/>
      <point x="17" y="374"/>
      <point x="29" y="480" type="curve" smooth="yes"/>
      <point x="37" y="553"/>
      <point x="42" y="599"/>
      <point x="45" y="641" type="curve" smooth="yes"/>
      <point x="47" y="670"/>
      <point x="47" y="737"/>
      <point x="45" y="765" type="curve" smooth="yes"/>
      <point x="40" y="839"/>
      <point x="34" y="887"/>
      <point x="11" y="1028" type="curve" smooth="yes"/>
      <point x="-15" y="1184"/>
      <point x="-21" y="1235"/>
      <point x="-23" y="1302" type="curve" smooth="yes"/>
      <point x="-25" y="1426"/>
      <point x="4" y="1501"/>
      <point x="79" y="1557" type="curve" smooth="yes"/>
      <point x="134" y="1599"/>
      <point x="200" y="1623"/>
    </contour>
  </outline>
</glyph>
<glyph name="H" format="1">
  <advance width="710"/>
  <unicode hex="0048"/>
  <outline>
    <contour>
      <point x="134" y="1628" type="curve" smooth="yes"/>
      <point x="140" y="1629"/>
      <point x="146" y="1629"/>
      <point x="148" y="1626" type="curve"/>
      <point x="150" y="1625"/>
      <point x="150" y="1617"/>
      <point x="150" y="1169" type="curve" smooth="yes"/>
      <point x="150" y="714" type="line"/>
      <point x="255" y="714" type="line"/>
      <point x="360" y="714" type="line"/>
      <point x="360" y="1147" type="line"/>
      <point x="360" y="1580" type="line"/>
      <point x="363" y="1585" type="line" smooth="yes"/>
      <point x="369" y="1595"/>
      <point x="388" y="1610"/>
      <point x="407" y="1618" type="curve"/>
      <point x="425" y="1627"/>
      <point x="442" y="1631"/>
      <point x="447" y="1627" type="curve" smooth="yes"/>
      <point x="449" y="1625" type="line"/>
      <point x="449" y="823" type="line" smooth="yes"/>
      <point x="449" y="143"/>
      <point x="449" y="20"/>
      <point x="448" y="18" type="curve" smooth="yes"/>
      <point x="446" y="13"/>
      <point x="435" y="2"/>
      <point x="425" y="-5" type="curve" smooth="yes"/>
      <point x="406" y="-18"/>
      <point x="387" y="-27"/>
      <point x="373" y="-28" type="curve" smooth="yes"/>
      <point x="365" y="-28"/>
      <point x="364" y="-28"/>
      <point x="362" y="-26" type="curve" smooth="yes"/>
      <point x="360" y="-24" type="line"/>
      <point x="360" y="317" type="line"/>
      <point x="360" y="657" type="line"/>
      <point x="255" y="657" type="line"/>
      <point x="150" y="657" type="line"/>
      <point x="150" y="339" type="line" smooth="yes"/>
      <point x="150" y="71"/>
      <point x="150" y="20"/>
      <point x="149" y="18" type="curve" smooth="yes"/>
      <point x="147" y="13"/>
      <point x="136" y="2"/>
      <point x="126" y="-5" type="curve" smooth="yes"/>
      <point x="107" y="-18"/>
      <point x="88" y="-27"/>
      <point x="74" y="-28" type="curve" smooth="yes"/>
      <point x="66" y="-28"/>
      <point x="65" y="-28"/>
      <point x="63" y="-26" type="curve" smooth="yes"/>
      <point x="61" y="-24" type="line"/>
      <point x="61" y="778" type="line"/>
      <point x="61" y="1580" type="line"/>
      <point x="64" y="1585" type="line" smooth="yes"/>
      <point x="73" y="1601"/>
      <point x="109" y="1623"/>
    </contour>
  </outline>
</glyph>
<glyph name="I" format="1">
  <advance width="210"/>
  <unicode hex="0049"/>
  <outline>
    <contour>
      <point x="51" y="1626" type="curve"/>
      <point x="60" y="1629" type="line"/>
      <point x="215" y="1629" type="line"/>
      <point x="370" y="1629" type="line"/>
      <point x="373" y="1626" type="line" smooth="yes"/>
      <point x="374" y="1625"/>
      <point x="375" y="1623"/>
      <point x="374" y="1622" type="curve" smooth="yes"/>
      <point x="370" y="1607"/>
      <point x="341" y="1585"/>
      <point x="312" y="1575" type="curve"/>
      <point x="305" y="1573" type="line"/>
      <point x="265" y="1572" type="line"/>
      <point x="225" y="1572" type="line"/>
      <point x="225" y="800" type="line"/>
      <point x="225" y="29" type="line"/>
      <point x="298" y="29" type="line"/>
      <point x="370" y="29" type="line"/>
      <point x="373" y="26" type="line" smooth="yes"/>
      <point x="374" y="25"/>
      <point x="375" y="23"/>
      <point x="374" y="22" type="curve" smooth="yes"/>
      <point x="370" y="7"/>
      <point x="341" y="-15"/>
      <point x="312" y="-25" type="curve"/>
      <point x="305" y="-27" type="line"/>
      <point x="148" y="-28" type="line"/>
      <point x="-9" y="-28" type="line"/>
      <point x="-12" y="-26" type="line"/>
      <point x="-14" y="-23"/>
      <point x="-14" y="-23"/>
      <point x="-13" y="-19" type="curve" smooth="yes"/>
      <point x="-12" y="-16"/>
      <point x="-10" y="-12"/>
      <point x="-4" y="-7" type="curve" smooth="yes"/>
      <point x="9" y="7"/>
      <point x="32" y="21"/>
      <point x="51" y="26" type="curve" smooth="yes"/>
      <point x="60" y="29"/>
      <point x="60" y="29"/>
      <point x="98" y="29" type="curve" smooth="yes"/>
      <point x="136" y="29" type="line"/>
      <point x="136" y="801" type="line"/>
      <point x="136" y="1572" type="line"/>
      <point x="64" y="1572" type="line"/>
      <point x="-9" y="1572" type="line"/>
      <point x="-12" y="1574" type="line"/>
      <point x="-14" y="1577"/>
      <point x="-14" y="1577"/>
      <point x="-13" y="1581" type="curve" smooth="yes"/>
      <point x="-12" y="1584"/>
      <point x="-10" y="1588"/>
      <point x="-4" y="1593" type="curve" smooth="yes"/>
      <point x="9" y="1607"/>
      <point x="32" y="1621"/>
    </contour>
  </outline>
</glyph>
<glyph name="J" format="1">
  <advance width="620"/>
  <unicode hex="004A"/>
  <outline>
    <contour>
      <point x="51" y="1626" type="curve"/>
      <point x="60" y="1629" type="line"/>
      <point x="215" y="1629" type="line" smooth="yes"/>
      <point x="370" y="1629"/>
      <point x="371" y="1629"/>
      <point x="373" y="1627" type="curve" smooth="yes"/>
      <point x="375" y="1625"/>
      <point x="375" y="1624"/>
      <point x="375" y="1168" type="curve" smooth="yes"/>
      <point x="375" y="712" type="line"/>
      <point x="387" y="706" type="line" smooth="yes"/>
      <point x="423" y="687"/>
      <point x="453" y="665"/>
      <point x="482" y="637" type="curve"/>
      <point x="522" y="596"/>
      <point x="549" y="552"/>
      <point x="566" y="498" type="curve" smooth="yes"/>
      <point x="602" y="390"/>
      <point x="583" y="264"/>
      <point x="516" y="166" type="curve" smooth="yes"/>
      <point x="483" y="117"/>
      <point x="437" y="74"/>
      <point x="384" y="41" type="curve" smooth="yes"/>
      <point x="307" y="-6"/>
      <point x="229" y="-29"/>
      <point x="145" y="-29" type="curve" smooth="yes"/>
      <point x="95" y="-29"/>
      <point x="52" y="-22"/>
      <point x="9" y="-6" type="curve" smooth="yes"/>
      <point x="-8" y="0"/>
      <point x="-39" y="16"/>
      <point x="-54" y="25" type="curve" smooth="yes"/>
      <point x="-137" y="77"/>
      <point x="-196" y="164"/>
      <point x="-217" y="266" type="curve" smooth="yes"/>
      <point x="-222" y="294"/>
      <point x="-223" y="308"/>
      <point x="-223" y="341" type="curve" smooth="yes"/>
      <point x="-223" y="378"/>
      <point x="-221" y="398"/>
      <point x="-212" y="432" type="curve" smooth="yes"/>
      <point x="-185" y="539"/>
      <point x="-112" y="627"/>
      <point x="4" y="690" type="curve" smooth="yes"/>
      <point x="32" y="705"/>
      <point x="55" y="714"/>
      <point x="66" y="714" type="curve" smooth="yes"/>
      <point x="81" y="714"/>
      <point x="77" y="701"/>
      <point x="58" y="686" type="curve" smooth="yes"/>
      <point x="47" y="677"/>
      <point x="42" y="674"/>
      <point x="21" y="663" type="curve" smooth="yes"/>
      <point x="-13" y="646"/>
      <point x="-35" y="629"/>
      <point x="-58" y="603" type="curve" smooth="yes"/>
      <point x="-99" y="555"/>
      <point x="-124" y="497"/>
      <point x="-133" y="428" type="curve" smooth="yes"/>
      <point x="-135" y="408"/>
      <point x="-135" y="364"/>
      <point x="-133" y="344" type="curve" smooth="yes"/>
      <point x="-124" y="270"/>
      <point x="-95" y="203"/>
      <point x="-50" y="149" type="curve" smooth="yes"/>
      <point x="-8" y="98"/>
      <point x="50" y="61"/>
      <point x="112" y="43" type="curve" smooth="yes"/>
      <point x="205" y="16"/>
      <point x="311" y="27"/>
      <point x="370" y="69" type="curve"/>
      <point x="427" y="111"/>
      <point x="473" y="189"/>
      <point x="488" y="272" type="curve" smooth="yes"/>
      <point x="501" y="342"/>
      <point x="494" y="413"/>
      <point x="468" y="477" type="curve" smooth="yes"/>
      <point x="437" y="551"/>
      <point x="379" y="612"/>
      <point x="302" y="652" type="curve" smooth="yes"/>
      <point x="294" y="656"/>
      <point x="287" y="660"/>
      <point x="287" y="660" type="curve" smooth="yes"/>
      <point x="286" y="661"/>
      <point x="286" y="866"/>
      <point x="286" y="1117" type="curve" smooth="yes"/>
      <point x="286" y="1572" type="line"/>
      <point x="139" y="1572" type="line"/>
      <point x="-9" y="1572" type="line"/>
      <point x="-12" y="1574" type="line"/>
      <point x="-14" y="1577"/>
      <point x="-14" y="1577"/>
      <point x="-13" y="1581" type="curve" smooth="yes"/>
      <point x="-12" y="1584"/>
      <point x="-10" y="1588"/>
      <point x="-4" y="1593" type="curve" smooth="yes"/>
      <point x="9" y="1607"/>
      <point x="32" y="1621"/>
    </contour>
  </outline>
</glyph>
<glyph name="K" format="1">
  <advance width="635"/>
  <unicode hex="004B"/>
  <outline>
    <contour>
      <point x="134" y="1628" type="curve" smooth="yes"/>
      <point x="140" y="1629"/>
      <point x="146" y="1629"/>
      <point x="148" y="1626" type="curve"/>
      <point x="150" y="1625"/>
      <point x="150" y="1619"/>
      <point x="150" y="1281" type="curve" smooth="yes"/>
      <point x="151" y="938" type="line"/>
      <point x="255" y="1259" type="line" smooth="yes"/>
      <point x="313" y="1435"/>
      <point x="361" y="1582"/>
      <point x="363" y="1584" type="curve" smooth="yes"/>
      <point x="372" y="1602"/>
      <point x="417" y="1628"/>
      <point x="439" y="1628" type="curve"/>
      <point x="445" y="1629"/>
      <point x="449" y="1627"/>
      <point x="449" y="1623" type="curve" smooth="yes"/>
      <point x="449" y="1622"/>
      <point x="382" y="1416"/>
      <point x="300" y="1165" type="curve" smooth="yes"/>
      <point x="150" y="708" type="line"/>
      <point x="300" y="366" type="line"/>
      <point x="448" y="26"/>
      <point x="449" y="23"/>
      <point x="448" y="19" type="curve" smooth="yes"/>
      <point x="445" y="7"/>
      <point x="416" y="-14"/>
      <point x="391" y="-24" type="curve" smooth="yes"/>
      <point x="380" y="-28"/>
      <point x="366" y="-29"/>
      <point x="363" y="-27" type="curve" smooth="yes"/>
      <point x="361" y="-25"/>
      <point x="362" y="-27"/>
      <point x="236" y="260" type="curve"/>
      <point x="151" y="457" type="line"/>
      <point x="150" y="238" type="line"/>
      <point x="150" y="18" type="line"/>
      <point x="147" y="14" type="line" smooth="yes"/>
      <point x="138" y="1"/>
      <point x="114" y="-15"/>
      <point x="92" y="-24" type="curve" smooth="yes"/>
      <point x="85" y="-26"/>
      <point x="81" y="-27"/>
      <point x="74" y="-28" type="curve"/>
      <point x="66" y="-28"/>
      <point x="65" y="-28"/>
      <point x="63" y="-26" type="curve" smooth="yes"/>
      <point x="61" y="-24" type="line"/>
      <point x="61" y="778" type="line"/>
      <point x="61" y="1580" type="line"/>
      <point x="64" y="1585" type="line" smooth="yes"/>
      <point x="73" y="1601"/>
      <point x="109" y="1623"/>
    </contour>
  </outline>
</glyph>
<glyph name="L" format="1">
  <advance width="635"/>
  <unicode hex="004C"/>
  <outline>
    <contour>
      <point x="134" y="1628" type="curve" smooth="yes"/>
      <point x="140" y="1629"/>
      <point x="146" y="1629"/>
      <point x="148" y="1626" type="curve"/>
      <point x="150" y="1625"/>
      <point x="150" y="1613"/>
      <point x="150" y="827" type="curve" smooth="yes"/>
      <point x="150" y="29" type="line"/>
      <point x="298" y="29" type="line" smooth="yes"/>
      <point x="444" y="29"/>
      <point x="445" y="29"/>
      <point x="447" y="27" type="curve" smooth="yes"/>
      <point x="448" y="26"/>
      <point x="449" y="24"/>
      <point x="449" y="23" type="curve" smooth="yes"/>
      <point x="449" y="12"/>
      <point x="421" y="-11"/>
      <point x="395" y="-21" type="curve" smooth="yes"/>
      <point x="378" y="-28"/>
      <point x="391" y="-28"/>
      <point x="220" y="-28" type="curve" smooth="yes"/>
      <point x="66" y="-28" type="line"/>
      <point x="64" y="-26" type="line"/>
      <point x="61" y="-24" type="line"/>
      <point x="61" y="778" type="line"/>
      <point x="61" y="1580" type="line"/>
      <point x="64" y="1585" type="line" smooth="yes"/>
      <point x="73" y="1601"/>
      <point x="109" y="1623"/>
    </contour>
  </outline>
</glyph>
<glyph name="M" format="1">
  <advance width="810"/>
  <unicode hex="004D"/>
  <outline>
    <contour>
      <point x="134" y="1628" type="curve" smooth="yes"/>
      <point x="140" y="1629"/>
      <point x="146" y="1629"/>
      <point x="148" y="1626" type="curve"/>
      <point x="150" y="1625"/>
      <point x="160" y="1561"/>
      <point x="204" y="1292" type="curve" smooth="yes"/>
      <point x="242" y="1059"/>
      <point x="259" y="961"/>
      <point x="259" y="963" type="curve"/>
      <point x="260" y="964"/>
      <point x="282" y="1103"/>
      <point x="310" y="1272" type="curve" smooth="yes"/>
      <point x="355" y="1547"/>
      <point x="360" y="1579"/>
      <point x="363" y="1584" type="curve" smooth="yes"/>
      <point x="368" y="1594"/>
      <point x="387" y="1609"/>
      <point x="407" y="1618" type="curve" smooth="yes"/>
      <point x="425" y="1627"/>
      <point x="442" y="1631"/>
      <point x="447" y="1627" type="curve" smooth="yes"/>
      <point x="449" y="1625" type="line"/>
      <point x="449" y="823" type="line" smooth="yes"/>
      <point x="449" y="143"/>
      <point x="449" y="20"/>
      <point x="448" y="18" type="curve" smooth="yes"/>
      <point x="446" y="13"/>
      <point x="435" y="2"/>
      <point x="425" y="-5" type="curve" smooth="yes"/>
      <point x="406" y="-18"/>
      <point x="387" y="-27"/>
      <point x="373" y="-28" type="curve" smooth="yes"/>
      <point x="365" y="-28"/>
      <point x="364" y="-28"/>
      <point x="362" y="-26" type="curve" smooth="yes"/>
      <point x="360" y="-24" type="line"/>
      <point x="360" y="526" type="line"/>
      <point x="360" y="1076" type="line"/>
      <point x="330" y="891" type="line" smooth="yes"/>
      <point x="305" y="738"/>
      <point x="299" y="705"/>
      <point x="297" y="701" type="curve" smooth="yes"/>
      <point x="296" y="699"/>
      <point x="291" y="694"/>
      <point x="287" y="690" type="curve" smooth="yes"/>
      <point x="269" y="673"/>
      <point x="240" y="658"/>
      <point x="222" y="657" type="curve" smooth="yes"/>
      <point x="210" y="656"/>
      <point x="215" y="635"/>
      <point x="181" y="845" type="curve" smooth="yes"/>
      <point x="151" y="1029" type="line"/>
      <point x="150" y="524" type="line"/>
      <point x="150" y="18" type="line"/>
      <point x="147" y="14" type="line" smooth="yes"/>
      <point x="138" y="1"/>
      <point x="114" y="-15"/>
      <point x="92" y="-24" type="curve" smooth="yes"/>
      <point x="85" y="-26"/>
      <point x="81" y="-27"/>
      <point x="74" y="-28" type="curve"/>
      <point x="66" y="-28"/>
      <point x="65" y="-28"/>
      <point x="63" y="-26" type="curve" smooth="yes"/>
      <point x="61" y="-24" type="line"/>
      <point x="61" y="778" type="line"/>
      <point x="61" y="1580" type="line"/>
      <point x="64" y="1585" type="line" smooth="yes"/>
      <point x="73" y="1601"/>
      <point x="109" y="1623"/>
    </contour>
  </outline>
</glyph>
<glyph name="N" format="1">
  <advance width="710"/>
  <unicode hex="004E"/>
  <outline>
    <contour>
      <point x="134" y="1628" type="curve" smooth="yes"/>
      <point x="140" y="1629"/>
      <point x="146" y="1629"/>
      <point x="148" y="1626" type="curve" smooth="yes"/>
      <point x="149" y="1625"/>
      <point x="173" y="1502"/>
      <point x="255" y="1063" type="curve" smooth="yes"/>
      <point x="360" y="502" type="line"/>
      <point x="360" y="1041" type="line"/>
      <point x="361" y="1581" type="line"/>
      <point x="363" y="1585" type="line" smooth="yes"/>
      <point x="369" y="1595"/>
      <point x="388" y="1610"/>
      <point x="407" y="1618" type="curve"/>
      <point x="425" y="1627"/>
      <point x="442" y="1631"/>
      <point x="447" y="1627" type="curve" smooth="yes"/>
      <point x="449" y="1625" type="line"/>
      <point x="449" y="823" type="line" smooth="yes"/>
      <point x="449" y="143"/>
      <point x="449" y="20"/>
      <point x="448" y="18" type="curve" smooth="yes"/>
      <point x="447" y="16"/>
      <point x="444" y="11"/>
      <point x="440" y="8" type="curve"/>
      <point x="425" y="-9"/>
      <point x="392" y="-26"/>
      <point x="374" y="-28" type="curve" smooth="yes"/>
      <point x="365" y="-28"/>
      <point x="362" y="-28"/>
      <point x="361" y="-24" type="curve" smooth="yes"/>
      <point x="360" y="-22"/>
      <point x="312" y="231"/>
      <point x="255" y="539" type="curve" smooth="yes"/>
      <point x="151" y="1098" type="line"/>
      <point x="150" y="558" type="line"/>
      <point x="150" y="18" type="line"/>
      <point x="147" y="14" type="line" smooth="yes"/>
      <point x="138" y="1"/>
      <point x="114" y="-15"/>
      <point x="92" y="-24" type="curve" smooth="yes"/>
      <point x="85" y="-26"/>
      <point x="81" y="-27"/>
      <point x="74" y="-28" type="curve"/>
      <point x="66" y="-28"/>
      <point x="65" y="-28"/>
      <point x="63" y="-26" type="curve" smooth="yes"/>
      <point x="61" y="-24" type="line"/>
      <point x="61" y="778" type="line"/>
      <point x="61" y="1580" type="line"/>
      <point x="64" y="1585" type="line" smooth="yes"/>
      <point x="73" y="1601"/>
      <point x="109" y="1623"/>
    </contour>
  </outline>
</glyph>
<glyph name="O" format="1">
  <advance width="680"/>
  <unicode hex="004F"/>
  <outline>
    <contour>
      <point x="250" y="1691" type="curve" smooth="yes"/>
      <point x="262" y="1692"/>
      <point x="287" y="1692"/>
      <point x="299" y="1691" type="curve" smooth="yes"/>
      <point x="375" y="1683"/>
      <point x="441" y="1637"/>
      <point x="474" y="1567" type="curve" smooth="yes"/>
      <point x="493" y="1529"/>
      <point x="500" y="1490"/>
      <point x="499" y="1440" type="curve" smooth="yes"/>
      <point x="497" y="1374"/>
      <point x="483" y="1315"/>
      <point x="441" y="1184" type="curve" smooth="yes"/>
      <point x="414" y="1102"/>
      <point x="403" y="1060"/>
      <point x="391" y="1001" type="curve" smooth="yes"/>
      <point x="354" y="821"/>
      <point x="364" y="657"/>
      <point x="419" y="516" type="curve" smooth="yes"/>
      <point x="435" y="475"/>
      <point x="450" y="445"/>
      <point x="494" y="368" type="curve" smooth="yes"/>
      <point x="528" y="309"/>
      <point x="535" y="295"/>
      <point x="550" y="265" type="curve" smooth="yes"/>
      <point x="575" y="213"/>
      <point x="589" y="175"/>
      <point x="595" y="136" type="curve"/>
      <point x="605" y="82"/>
      <point x="600" y="33"/>
      <point x="579" y="-21" type="curve"/>
      <point x="574" y="-37"/>
      <point x="560" y="-65"/>
      <point x="551" y="-79" type="curve" smooth="yes"/>
      <point x="515" y="-140"/>
      <point x="454" y="-193"/>
      <point x="382" y="-228" type="curve" smooth="yes"/>
      <point x="337" y="-250"/>
      <point x="295" y="-263"/>
      <point x="248" y="-269" type="curve" smooth="yes"/>
      <point x="228" y="-271"/>
      <point x="180" y="-271"/>
      <point x="162" y="-269" type="curve" smooth="yes"/>
      <point x="24" y="-250"/>
      <point x="-77" y="-160"/>
      <point x="-112" y="-27" type="curve" smooth="yes"/>
      <point x="-118" y="-3"/>
      <point x="-119" y="11"/>
      <point x="-119" y="40" type="curve" smooth="yes"/>
      <point x="-119" y="67"/>
      <point x="-118" y="78"/>
      <point x="-113" y="103" type="curve" smooth="yes"/>
      <point x="-105" y="142"/>
      <point x="-91" y="179"/>
      <point x="-66" y="228" type="curve" smooth="yes"/>
      <point x="-52" y="257"/>
      <point x="-48" y="264"/>
      <point x="-17" y="319" type="curve" smooth="yes"/>
      <point x="14" y="374"/>
      <point x="23" y="389"/>
      <point x="35" y="413" type="curve" smooth="yes"/>
      <point x="61" y="465"/>
      <point x="78" y="514"/>
      <point x="91" y="568" type="curve" smooth="yes"/>
      <point x="125" y="715"/>
      <point x="115" y="883"/>
      <point x="62" y="1069" type="curve" smooth="yes"/>
      <point x="58" y="1081"/>
      <point x="48" y="1111"/>
      <point x="40" y="1137" type="curve" smooth="yes"/>
      <point x="10" y="1228"/>
      <point x="0" y="1266"/>
      <point x="-9" y="1310" type="curve" smooth="yes"/>
      <point x="-22" y="1376"/>
      <point x="-22" y="1432"/>
      <point x="-10" y="1478" type="curve"/>
      <point x="-2" y="1513"/>
      <point x="15" y="1545"/>
      <point x="37" y="1573" type="curve" smooth="yes"/>
      <point x="87" y="1635"/>
      <point x="173" y="1683"/>
    </contour>
    <contour>
      <point x="237" y="1632" type="curve" smooth="yes"/>
      <point x="225" y="1634"/>
      <point x="198" y="1635"/>
      <point x="190" y="1634" type="curve" smooth="yes"/>
      <point x="171" y="1632"/>
      <point x="156" y="1628"/>
      <point x="146" y="1623" type="curve" smooth="yes"/>
      <point x="122" y="1611"/>
      <point x="95" y="1574"/>
      <point x="83" y="1535" type="curve" smooth="yes"/>
      <point x="74" y="1508"/>
      <point x="71" y="1486"/>
      <point x="71" y="1450" type="curve" smooth="yes"/>
      <point x="71" y="1408"/>
      <point x="75" y="1374"/>
      <point x="88" y="1320" type="curve" smooth="yes"/>
      <point x="97" y="1283"/>
      <point x="104" y="1259"/>
      <point x="129" y="1184" type="curve" smooth="yes"/>
      <point x="146" y="1132"/>
      <point x="154" y="1104"/>
      <point x="163" y="1070" type="curve" smooth="yes"/>
      <point x="180" y="1003"/>
      <point x="191" y="939"/>
      <point x="196" y="877" type="curve" smooth="yes"/>
      <point x="208" y="745"/>
      <point x="192" y="624"/>
      <point x="150" y="515" type="curve" smooth="yes"/>
      <point x="133" y="471"/>
      <point x="116" y="437"/>
      <point x="67" y="350" type="curve" smooth="yes"/>
      <point x="36" y="295"/>
      <point x="30" y="284"/>
      <point x="16" y="256" type="curve" smooth="yes"/>
      <point x="-34" y="153"/>
      <point x="-43" y="79"/>
      <point x="-15" y="-4" type="curve" smooth="yes"/>
      <point x="2" y="-56"/>
      <point x="32" y="-102"/>
      <point x="69" y="-136" type="curve" smooth="yes"/>
      <point x="117" y="-179"/>
      <point x="174" y="-204"/>
      <point x="243" y="-212" type="curve" smooth="yes"/>
      <point x="257" y="-214"/>
      <point x="295" y="-214"/>
      <point x="308" y="-212" type="curve" smooth="yes"/>
      <point x="346" y="-208"/>
      <point x="380" y="-196"/>
      <point x="403" y="-180" type="curve"/>
      <point x="421" y="-169"/>
      <point x="441" y="-148"/>
      <point x="457" y="-126" type="curve" smooth="yes"/>
      <point x="486" y="-86"/>
      <point x="505" y="-32"/>
      <point x="510" y="17" type="curve" smooth="yes"/>
      <point x="514" y="64"/>
      <point x="504" y="118"/>
      <point x="480" y="176" type="curve" smooth="yes"/>
      <point x="467" y="209"/>
      <point x="449" y="243"/>
      <point x="407" y="317" type="curve" smooth="yes"/>
      <point x="371" y="380"/>
      <point x="355" y="410"/>
      <point x="342" y="442" type="curve"/>
      <point x="315" y="501"/>
      <point x="297" y="567"/>
      <point x="288" y="636" type="curve" smooth="yes"/>
      <point x="269" y="772"/>
      <point x="285" y="924"/>
      <point x="334" y="1086" type="curve" smooth="yes"/>
      <point x="337" y="1095"/>
      <point x="345" y="1121"/>
      <point x="353" y="1144" type="curve" smooth="yes"/>
      <point x="374" y="1210"/>
      <point x="382" y="1237"/>
      <point x="391" y="1272" type="curve" smooth="yes"/>
      <point x="424" y="1405"/>
      <point x="414" y="1495"/>
      <point x="357" y="1563" type="curve" smooth="yes"/>
      <point x="327" y="1599"/>
      <point x="284" y="1624"/>
    </contour>
  </outline>
</glyph>
<glyph name="P" format="1">
  <advance width="650"/>
  <unicode hex="0050"/>
  <outline>
    <contour>
      <point x="134" y="1628" type="curve" smooth="yes"/>
      <point x="137" y="1628"/>
      <point x="140" y="1629"/>
      <point x="142" y="1629" type="curve" smooth="yes"/>
      <point x="147" y="1628"/>
      <point x="184" y="1610"/>
      <point x="203" y="1599" type="curve" smooth="yes"/>
      <point x="356" y="1507"/>
      <point x="450" y="1342"/>
      <point x="450" y="1165" type="curve" smooth="yes"/>
      <point x="450" y="1074"/>
      <point x="425" y="983"/>
      <point x="378" y="905" type="curve" smooth="yes"/>
      <point x="355" y="865"/>
      <point x="328" y="831"/>
      <point x="293" y="796" type="curve" smooth="yes"/>
      <point x="253" y="756"/>
      <point x="206" y="721"/>
      <point x="154" y="692" type="curve"/>
      <point x="150" y="690" type="line"/>
      <point x="150" y="355" type="line" smooth="yes"/>
      <point x="150" y="73"/>
      <point x="150" y="20"/>
      <point x="149" y="18" type="curve" smooth="yes"/>
      <point x="147" y="13"/>
      <point x="136" y="2"/>
      <point x="126" y="-5" type="curve" smooth="yes"/>
      <point x="107" y="-18"/>
      <point x="88" y="-27"/>
      <point x="74" y="-28" type="curve" smooth="yes"/>
      <point x="66" y="-28"/>
      <point x="65" y="-28"/>
      <point x="63" y="-26" type="curve" smooth="yes"/>
      <point x="61" y="-24" type="line"/>
      <point x="61" y="778" type="line"/>
      <point x="61" y="1580" type="line"/>
      <point x="64" y="1585" type="line" smooth="yes"/>
      <point x="73" y="1601"/>
      <point x="109" y="1623"/>
    </contour>
    <contour>
      <point x="164" y="1514" type="curve" smooth="yes"/>
      <point x="157" y="1520"/>
      <point x="151" y="1524"/>
      <point x="151" y="1524" type="curve" smooth="yes"/>
      <point x="150" y="1524"/>
      <point x="150" y="1344"/>
      <point x="150" y="1125" type="curve" smooth="yes"/>
      <point x="150" y="883"/>
      <point x="150" y="726"/>
      <point x="151" y="726" type="curve" smooth="yes"/>
      <point x="153" y="726"/>
      <point x="183" y="746"/>
      <point x="192" y="755" type="curve"/>
      <point x="251" y="801"/>
      <point x="298" y="868"/>
      <point x="327" y="942" type="curve" smooth="yes"/>
      <point x="357" y="1018"/>
      <point x="367" y="1100"/>
      <point x="357" y="1182" type="curve" smooth="yes"/>
      <point x="343" y="1291"/>
      <point x="294" y="1390"/>
      <point x="217" y="1468" type="curve" smooth="yes"/>
      <point x="199" y="1487"/>
      <point x="184" y="1499"/>
    </contour>
  </outline>
</glyph>
<glyph name="Q" format="1">
  <advance width="680"/>
  <unicode hex="0051"/>
  <outline>
    <contour>
      <point x="245" y="1867" type="curve" smooth="yes"/>
      <point x="259" y="1868"/>
      <point x="291" y="1868"/>
      <point x="305" y="1867" type="curve" smooth="yes"/>
      <point x="371" y="1861"/>
      <point x="431" y="1838"/>
      <point x="482" y="1799" type="curve" smooth="yes"/>
      <point x="495" y="1789"/>
      <point x="520" y="1764"/>
      <point x="530" y="1751" type="curve" smooth="yes"/>
      <point x="547" y="1730"/>
      <point x="566" y="1698"/>
      <point x="577" y="1673" type="curve"/>
      <point x="585" y="1652"/>
      <point x="594" y="1622"/>
      <point x="597" y="1601" type="curve" smooth="yes"/>
      <point x="604" y="1561"/>
      <point x="601" y="1514"/>
      <point x="588" y="1468" type="curve" smooth="yes"/>
      <point x="573" y="1414"/>
      <point x="550" y="1366"/>
      <point x="487" y="1259" type="curve" smooth="yes"/>
      <point x="440" y="1178"/>
      <point x="426" y="1151"/>
      <point x="407" y="1104" type="curve" smooth="yes"/>
      <point x="370" y="1012"/>
      <point x="351" y="909"/>
      <point x="353" y="809" type="curve" smooth="yes"/>
      <point x="354" y="762"/>
      <point x="358" y="723"/>
      <point x="367" y="680" type="curve"/>
      <point x="369" y="667" type="line"/>
      <point x="377" y="661" type="line"/>
      <point x="405" y="642"/>
      <point x="432" y="620"/>
      <point x="458" y="594" type="curve" smooth="yes"/>
      <point x="502" y="550"/>
      <point x="536" y="504"/>
      <point x="563" y="449" type="curve" smooth="yes"/>
      <point x="627" y="321"/>
      <point x="639" y="173"/>
      <point x="597" y="38" type="curve" smooth="yes"/>
      <point x="595" y="30"/>
      <point x="592" y="21"/>
      <point x="592" y="17" type="curve"/>
      <point x="579" y="-32"/>
      <point x="552" y="-84"/>
      <point x="520" y="-121" type="curve" smooth="yes"/>
      <point x="516" y="-125"/>
      <point x="510" y="-133"/>
      <point x="506" y="-138" type="curve" smooth="yes"/>
      <point x="477" y="-175"/>
      <point x="431" y="-220"/>
      <point x="406" y="-237" type="curve" smooth="yes"/>
      <point x="384" y="-252"/>
      <point x="356" y="-261"/>
      <point x="349" y="-256" type="curve" smooth="yes"/>
      <point x="345" y="-253"/>
      <point x="345" y="-249"/>
      <point x="349" y="-244" type="curve"/>
      <point x="351" y="-240" type="line" smooth="yes"/>
      <point x="351" y="-239"/>
      <point x="348" y="-240"/>
      <point x="344" y="-242" type="curve" smooth="yes"/>
      <point x="320" y="-251"/>
      <point x="288" y="-260"/>
      <point x="263" y="-263" type="curve"/>
      <point x="164" y="-279"/>
      <point x="72" y="-256"/>
      <point x="-2" y="-199" type="curve" smooth="yes"/>
      <point x="-15" y="-189"/>
      <point x="-40" y="-164"/>
      <point x="-50" y="-151" type="curve" smooth="yes"/>
      <point x="-67" y="-130"/>
      <point x="-86" y="-98"/>
      <point x="-97" y="-72" type="curve" smooth="yes"/>
      <point x="-105" y="-52"/>
      <point x="-114" y="-22"/>
      <point x="-117" y="-1" type="curve" smooth="yes"/>
      <point x="-124" y="39"/>
      <point x="-121" y="86"/>
      <point x="-108" y="132" type="curve" smooth="yes"/>
      <point x="-93" y="186"/>
      <point x="-70" y="234"/>
      <point x="-7" y="341" type="curve" smooth="yes"/>
      <point x="21" y="389"/>
      <point x="33" y="411"/>
      <point x="45" y="434" type="curve" smooth="yes"/>
      <point x="87" y="517"/>
      <point x="114" y="607"/>
      <point x="123" y="700" type="curve" smooth="yes"/>
      <point x="135" y="822"/>
      <point x="118" y="947"/>
      <point x="73" y="1060" type="curve" smooth="yes"/>
      <point x="53" y="1109"/>
      <point x="38" y="1137"/>
      <point x="-11" y="1221" type="curve" smooth="yes"/>
      <point x="-44" y="1278"/>
      <point x="-56" y="1300"/>
      <point x="-70" y="1329" type="curve" smooth="yes"/>
      <point x="-98" y="1384"/>
      <point x="-111" y="1424"/>
      <point x="-118" y="1470" type="curve" smooth="yes"/>
      <point x="-121" y="1491"/>
      <point x="-121" y="1530"/>
      <point x="-118" y="1551" type="curve" smooth="yes"/>
      <point x="-107" y="1624"/>
      <point x="-71" y="1693"/>
      <point x="-16" y="1746" type="curve" smooth="yes"/>
      <point x="53" y="1813"/>
      <point x="152" y="1859"/>
    </contour>
    <contour>
      <point x="228" y="1810" type="curve" smooth="yes"/>
      <point x="180" y="1814"/>
      <point x="128" y="1805"/>
      <point x="92" y="1787" type="curve" smooth="yes"/>
      <point x="57" y="1770"/>
      <point x="23" y="1733"/>
      <point x="0" y="1686" type="curve" smooth="yes"/>
      <point x="-14" y="1657"/>
      <point x="-25" y="1624"/>
      <point x="-30" y="1592" type="curve" smooth="yes"/>
      <point x="-32" y="1573"/>
      <point x="-32" y="1536"/>
      <point x="-29" y="1517" type="curve" smooth="yes"/>
      <point x="-22" y="1471"/>
      <point x="-9" y="1431"/>
      <point x="18" y="1378" type="curve" smooth="yes"/>
      <point x="31" y="1351"/>
      <point x="44" y="1328"/>
      <point x="76" y="1272" type="curve" smooth="yes"/>
      <point x="126" y="1187"/>
      <point x="142" y="1157"/>
      <point x="162" y="1107" type="curve" smooth="yes"/>
      <point x="190" y="1037"/>
      <point x="207" y="964"/>
      <point x="214" y="884" type="curve" smooth="yes"/>
      <point x="216" y="860"/>
      <point x="216" y="790"/>
      <point x="214" y="768" type="curve" smooth="yes"/>
      <point x="212" y="737"/>
      <point x="206" y="691"/>
      <point x="202" y="678" type="curve" smooth="yes"/>
      <point x="202" y="676"/>
      <point x="203" y="676"/>
      <point x="208" y="681" type="curve" smooth="yes"/>
      <point x="220" y="693"/>
      <point x="242" y="705"/>
      <point x="258" y="711" type="curve" smooth="yes"/>
      <point x="266" y="713"/>
      <point x="267" y="714"/>
      <point x="266" y="716" type="curve" smooth="yes"/>
      <point x="265" y="722"/>
      <point x="264" y="758"/>
      <point x="264" y="778" type="curve" smooth="yes"/>
      <point x="264" y="887"/>
      <point x="288" y="997"/>
      <point x="334" y="1099" type="curve" smooth="yes"/>
      <point x="348" y="1130"/>
      <point x="366" y="1164"/>
      <point x="403" y="1228" type="curve" smooth="yes"/>
      <point x="456" y="1319"/>
      <point x="476" y="1357"/>
      <point x="491" y="1402" type="curve" smooth="yes"/>
      <point x="504" y="1438"/>
      <point x="510" y="1468"/>
      <point x="512" y="1503" type="curve" smooth="yes"/>
      <point x="513" y="1535"/>
      <point x="508" y="1568"/>
      <point x="495" y="1604" type="curve" smooth="yes"/>
      <point x="489" y="1623"/>
      <point x="485" y="1633"/>
      <point x="476" y="1650" type="curve" smooth="yes"/>
      <point x="462" y="1677"/>
      <point x="444" y="1701"/>
      <point x="422" y="1723" type="curve" smooth="yes"/>
      <point x="371" y="1774"/>
      <point x="304" y="1804"/>
    </contour>
    <contour>
      <point x="210" y="653" type="curve" smooth="yes"/>
      <point x="204" y="656"/>
      <point x="199" y="658"/>
      <point x="199" y="658" type="curve" smooth="yes"/>
      <point x="198" y="658"/>
      <point x="197" y="651"/>
      <point x="195" y="642" type="curve" smooth="yes"/>
      <point x="186" y="606"/>
      <point x="173" y="566"/>
      <point x="160" y="533" type="curve" smooth="yes"/>
      <point x="140" y="484"/>
      <point x="124" y="453"/>
      <point x="77" y="372" type="curve" smooth="yes"/>
      <point x="24" y="281"/>
      <point x="4" y="243"/>
      <point x="-11" y="199" type="curve" smooth="yes"/>
      <point x="-31" y="144"/>
      <point x="-36" y="93"/>
      <point x="-28" y="46" type="curve" smooth="yes"/>
      <point x="-25" y="24"/>
      <point x="-15" y="-8"/>
      <point x="-7" y="-28" type="curve"/>
      <point x="4" y="-52"/>
      <point x="20" y="-79"/>
      <point x="36" y="-99" type="curve" smooth="yes"/>
      <point x="58" y="-127"/>
      <point x="90" y="-154"/>
      <point x="123" y="-172" type="curve" smooth="yes"/>
      <point x="174" y="-200"/>
      <point x="241" y="-215"/>
      <point x="299" y="-210" type="curve" smooth="yes"/>
      <point x="345" y="-206"/>
      <point x="384" y="-193"/>
      <point x="410" y="-173" type="curve"/>
      <point x="426" y="-162"/>
      <point x="437" y="-150"/>
      <point x="448" y="-132" type="curve"/>
      <point x="478" y="-88"/>
      <point x="503" y="-34"/>
      <point x="508" y="-2" type="curve" smooth="yes"/>
      <point x="521" y="76"/>
      <point x="501" y="154"/>
      <point x="440" y="265" type="curve" smooth="yes"/>
      <point x="433" y="276"/>
      <point x="417" y="304"/>
      <point x="404" y="328" type="curve"/>
      <point x="365" y="393"/>
      <point x="347" y="428"/>
      <point x="333" y="460" type="curve" smooth="yes"/>
      <point x="313" y="504"/>
      <point x="295" y="556"/>
      <point x="285" y="601" type="curve"/>
      <point x="281" y="615" type="line"/>
      <point x="276" y="618" type="line" smooth="yes"/>
      <point x="262" y="627"/>
      <point x="230" y="645"/>
    </contour>
  </outline>
</glyph>
<glyph name="R" format="1">
  <advance width="665"/>
  <unicode hex="0052"/>
  <outline>
    <contour>
      <point x="134" y="1628" type="curve" smooth="yes"/>
      <point x="137" y="1628"/>
      <point x="140" y="1629"/>
      <point x="142" y="1629" type="curve" smooth="yes"/>
      <point x="147" y="1628"/>
      <point x="184" y="1610"/>
      <point x="203" y="1599" type="curve" smooth="yes"/>
      <point x="356" y="1507"/>
      <point x="450" y="1342"/>
      <point x="450" y="1165" type="curve" smooth="yes"/>
      <point x="450" y="1074"/>
      <point x="425" y="983"/>
      <point x="378" y="905" type="curve" smooth="yes"/>
      <point x="355" y="865"/>
      <point x="328" y="831"/>
      <point x="293" y="796" type="curve" smooth="yes"/>
      <point x="257" y="760"/>
      <point x="217" y="729"/>
      <point x="172" y="702" type="curve" smooth="yes"/>
      <point x="164" y="697"/>
      <point x="157" y="694"/>
      <point x="157" y="693" type="curve" smooth="yes"/>
      <point x="157" y="693"/>
      <point x="223" y="543"/>
      <point x="303" y="359" type="curve" smooth="yes"/>
      <point x="399" y="140"/>
      <point x="449" y="23"/>
      <point x="449" y="22" type="curve" smooth="yes"/>
      <point x="449" y="12"/>
      <point x="428" y="-6"/>
      <point x="404" y="-18" type="curve" smooth="yes"/>
      <point x="385" y="-28"/>
      <point x="366" y="-31"/>
      <point x="362" y="-26" type="curve" smooth="yes"/>
      <point x="361" y="-24"/>
      <point x="313" y="85"/>
      <point x="255" y="217" type="curve" smooth="yes"/>
      <point x="151" y="457" type="line"/>
      <point x="150" y="238" type="line"/>
      <point x="150" y="18" type="line"/>
      <point x="147" y="14" type="line" smooth="yes"/>
      <point x="138" y="1"/>
      <point x="114" y="-15"/>
      <point x="92" y="-24" type="curve" smooth="yes"/>
      <point x="85" y="-26"/>
      <point x="81" y="-27"/>
      <point x="74" y="-28" type="curve"/>
      <point x="66" y="-28"/>
      <point x="65" y="-28"/>
      <point x="63" y="-26" type="curve" smooth="yes"/>
      <point x="61" y="-24" type="line"/>
      <point x="61" y="778" type="line"/>
      <point x="61" y="1580" type="line"/>
      <point x="64" y="1585" type="line" smooth="yes"/>
      <point x="73" y="1601"/>
      <point x="109" y="1623"/>
    </contour>
    <contour>
      <point x="164" y="1514" type="curve" smooth="yes"/>
      <point x="157" y="1520"/>
      <point x="151" y="1524"/>
      <point x="151" y="1524" type="curve" smooth="yes"/>
      <point x="150" y="1524"/>
      <point x="150" y="1344"/>
      <point x="150" y="1125" type="curve" smooth="yes"/>
      <point x="150" y="883"/>
      <point x="150" y="726"/>
      <point x="151" y="726" type="curve" smooth="yes"/>
      <point x="153" y="726"/>
      <point x="183" y="746"/>
      <point x="192" y="755" type="curve"/>
      <point x="251" y="801"/>
      <point x="298" y="868"/>
      <point x="327" y="942" type="curve" smooth="yes"/>
      <point x="357" y="1018"/>
      <point x="367" y="1100"/>
      <point x="357" y="1182" type="curve" smooth="yes"/>
      <point x="343" y="1291"/>
      <point x="294" y="1390"/>
      <point x="217" y="1468" type="curve" smooth="yes"/>
      <point x="199" y="1487"/>
      <point x="184" y="1499"/>
    </contour>
  </outline>
</glyph>
<glyph name="S" format="1">
  <advance width="620"/>
  <unicode hex="0053"/>
  <outline>
    <contour>
      <point x="198" y="2188" type="curve" smooth="yes"/>
      <point x="215" y="2189"/>
      <point x="270" y="2188"/>
      <point x="287" y="2187" type="curve" smooth="yes"/>
      <point x="361" y="2180"/>
      <point x="429" y="2162"/>
      <point x="492" y="2130" type="curve" smooth="yes"/>
      <point x="547" y="2103"/>
      <point x="588" y="2073"/>
      <point x="631" y="2030" type="curve"/>
      <point x="669" y="1990"/>
      <point x="699" y="1948"/>
      <point x="724" y="1897" type="curve" smooth="yes"/>
      <point x="765" y="1814"/>
      <point x="788" y="1716"/>
      <point x="791" y="1613" type="curve"/>
      <point x="793" y="1506"/>
      <point x="758" y="1402"/>
      <point x="689" y="1316" type="curve" smooth="yes"/>
      <point x="605" y="1211"/>
      <point x="472" y="1135"/>
      <point x="339" y="1116" type="curve" smooth="yes"/>
      <point x="324" y="1113"/>
      <point x="321" y="1114"/>
      <point x="317" y="1116" type="curve"/>
      <point x="315" y="1119"/>
      <point x="315" y="1119"/>
      <point x="316" y="1123" type="curve" smooth="yes"/>
      <point x="319" y="1133"/>
      <point x="341" y="1151"/>
      <point x="362" y="1161" type="curve" smooth="yes"/>
      <point x="374" y="1167"/>
      <point x="383" y="1170"/>
      <point x="396" y="1172" type="curve" smooth="yes"/>
      <point x="478" y="1184"/>
      <point x="539" y="1215"/>
      <point x="592" y="1271" type="curve"/>
      <point x="637" y="1321"/>
      <point x="671" y="1382"/>
      <point x="688" y="1448" type="curve" smooth="yes"/>
      <point x="701" y="1498"/>
      <point x="705" y="1546"/>
      <point x="700" y="1602" type="curve" smooth="yes"/>
      <point x="687" y="1759"/>
      <point x="635" y="1885"/>
      <point x="545" y="1977" type="curve" smooth="yes"/>
      <point x="504" y="2019"/>
      <point x="461" y="2050"/>
      <point x="409" y="2076" type="curve" smooth="yes"/>
      <point x="385" y="2088"/>
      <point x="366" y="2096"/>
      <point x="343" y="2103" type="curve" smooth="yes"/>
      <point x="205" y="2149"/>
      <point x="49" y="2139"/>
      <point x="-70" y="2079" type="curve" smooth="yes"/>
      <point x="-154" y="2036"/>
      <point x="-220" y="1962"/>
      <point x="-256" y="1871" type="curve" smooth="yes"/>
      <point x="-276" y="1820"/>
      <point x="-286" y="1772"/>
      <point x="-287" y="1713" type="curve" smooth="yes"/>
      <point x="-289" y="1579"/>
      <point x="-254" y="1496"/>
      <point x="-152" y="1396" type="curve" smooth="yes"/>
      <point x="-121" y="1365"/>
      <point x="-109" y="1354"/>
      <point x="-35" y="1293" type="curve" smooth="yes"/>
      <point x="-6" y="1268"/>
      <point x="25" y="1243"/>
      <point x="33" y="1236" type="curve" smooth="yes"/>
      <point x="132" y="1149"/>
      <point x="179" y="1088"/>
      <point x="274" y="921" type="curve" smooth="yes"/>
      <point x="348" y="791"/>
      <point x="372" y="753"/>
      <point x="412" y="699" type="curve" smooth="yes"/>
      <point x="443" y="658"/>
      <point x="465" y="632"/>
      <point x="543" y="543" type="curve" smooth="yes"/>
      <point x="632" y="441"/>
      <point x="665" y="400"/>
      <point x="699" y="349" type="curve" smooth="yes"/>
      <point x="753" y="268"/>
      <point x="783" y="195"/>
      <point x="792" y="121" type="curve" smooth="yes"/>
      <point x="794" y="102"/>
      <point x="795" y="67"/>
      <point x="793" y="48" type="curve" smooth="yes"/>
      <point x="788" y="-17"/>
      <point x="770" y="-81"/>
      <point x="741" y="-140" type="curve" smooth="yes"/>
      <point x="715" y="-191"/>
      <point x="687" y="-230"/>
      <point x="645" y="-272" type="curve" smooth="yes"/>
      <point x="624" y="-293"/>
      <point x="608" y="-307"/>
      <point x="585" y="-324" type="curve" smooth="yes"/>
      <point x="498" y="-391"/>
      <point x="391" y="-436"/>
      <point x="286" y="-451" type="curve" smooth="yes"/>
      <point x="255" y="-455"/>
      <point x="243" y="-456"/>
      <point x="206" y="-457" type="curve"/>
      <point x="158" y="-457"/>
      <point x="128" y="-455"/>
      <point x="91" y="-448" type="curve" smooth="yes"/>
      <point x="-92" y="-415"/>
      <point x="-240" y="-304"/>
      <point x="-325" y="-136" type="curve" smooth="yes"/>
      <point x="-363" y="-60"/>
      <point x="-385" y="13"/>
      <point x="-393" y="89" type="curve" smooth="yes"/>
      <point x="-395" y="110"/>
      <point x="-395" y="160"/>
      <point x="-393" y="181" type="curve" smooth="yes"/>
      <point x="-383" y="297"/>
      <point x="-340" y="402"/>
      <point x="-265" y="494" type="curve" smooth="yes"/>
      <point x="-198" y="576"/>
      <point x="-97" y="648"/>
      <point x="9" y="688" type="curve"/>
      <point x="43" y="702"/>
      <point x="85" y="714"/>
      <point x="96" y="714" type="curve" smooth="yes"/>
      <point x="112" y="714"/>
      <point x="106" y="699"/>
      <point x="83" y="682" type="curve" smooth="yes"/>
      <point x="66" y="669"/>
      <point x="52" y="663"/>
      <point x="26" y="656" type="curve" smooth="yes"/>
      <point x="-46" y="636"/>
      <point x="-103" y="603"/>
      <point x="-156" y="550" type="curve" smooth="yes"/>
      <point x="-234" y="472"/>
      <point x="-286" y="365"/>
      <point x="-301" y="254" type="curve" smooth="yes"/>
      <point x="-304" y="227"/>
      <point x="-305" y="211"/>
      <point x="-305" y="182" type="curve" smooth="yes"/>
      <point x="-305" y="151"/>
      <point x="-304" y="131"/>
      <point x="-299" y="102" type="curve" smooth="yes"/>
      <point x="-285" y="6"/>
      <point x="-240" y="-99"/>
      <point x="-180" y="-178" type="curve" smooth="yes"/>
      <point x="-81" y="-309"/>
      <point x="65" y="-388"/>
      <point x="230" y="-399" type="curve" smooth="yes"/>
      <point x="252" y="-401"/>
      <point x="302" y="-400"/>
      <point x="322" y="-398" type="curve" smooth="yes"/>
      <point x="371" y="-392"/>
      <point x="415" y="-381"/>
      <point x="455" y="-365" type="curve" smooth="yes"/>
      <point x="471" y="-359"/>
      <point x="499" y="-345"/>
      <point x="513" y="-336" type="curve" smooth="yes"/>
      <point x="555" y="-310"/>
      <point x="598" y="-267"/>
      <point x="627" y="-223" type="curve" smooth="yes"/>
      <point x="666" y="-165"/>
      <point x="691" y="-97"/>
      <point x="701" y="-26" type="curve" smooth="yes"/>
      <point x="713" y="59"/>
      <point x="698" y="139"/>
      <point x="656" y="223" type="curve" smooth="yes"/>
      <point x="632" y="271"/>
      <point x="599" y="320"/>
      <point x="551" y="380" type="curve" smooth="yes"/>
      <point x="529" y="407"/>
      <point x="510" y="429"/>
      <point x="456" y="492" type="curve" smooth="yes"/>
      <point x="378" y="581"/>
      <point x="356" y="607"/>
      <point x="325" y="648" type="curve" smooth="yes"/>
      <point x="285" y="702"/>
      <point x="261" y="740"/>
      <point x="187" y="870" type="curve" smooth="yes"/>
      <point x="119" y="988"/>
      <point x="83" y="1042"/>
      <point x="32" y="1100" type="curve" smooth="yes"/>
      <point x="-1" y="1138"/>
      <point x="-31" y="1165"/>
      <point x="-119" y="1239" type="curve" smooth="yes"/>
      <point x="-194" y="1301"/>
      <point x="-205" y="1311"/>
      <point x="-238" y="1343" type="curve" smooth="yes"/>
      <point x="-287" y="1392"/>
      <point x="-317" y="1431"/>
      <point x="-339" y="1478" type="curve"/>
      <point x="-361" y="1521"/>
      <point x="-371" y="1560"/>
      <point x="-375" y="1620" type="curve" smooth="yes"/>
      <point x="-377" y="1641"/>
      <point x="-376" y="1694"/>
      <point x="-374" y="1712" type="curve" smooth="yes"/>
      <point x="-362" y="1809"/>
      <point x="-327" y="1889"/>
      <point x="-264" y="1966" type="curve" smooth="yes"/>
      <point x="-252" y="1980"/>
      <point x="-216" y="2016"/>
      <point x="-199" y="2030" type="curve" smooth="yes"/>
      <point x="-87" y="2123"/>
      <point x="54" y="2179"/>
    </contour>
  </outline>
</glyph>
<glyph name="T" format="1">
  <advance width="530"/>
  <unicode hex="0054"/>
  <outline>
    <contour>
      <point x="36" y="1626" type="curve"/>
      <point x="45" y="1629" type="line"/>
      <point x="200" y="1629" type="line" smooth="yes"/>
      <point x="354" y="1629"/>
      <point x="355" y="1629"/>
      <point x="357" y="1627" type="curve" smooth="yes"/>
      <point x="358" y="1626"/>
      <point x="359" y="1624"/>
      <point x="359" y="1623" type="curve" smooth="yes"/>
      <point x="359" y="1612"/>
      <point x="331" y="1589"/>
      <point x="305" y="1579" type="curve" smooth="yes"/>
      <point x="289" y="1572"/>
      <point x="288" y="1572"/>
      <point x="247" y="1572" type="curve" smooth="yes"/>
      <point x="210" y="1572" type="line"/>
      <point x="210" y="796" type="line" smooth="yes"/>
      <point x="210" y="139"/>
      <point x="210" y="20"/>
      <point x="209" y="18" type="curve" smooth="yes"/>
      <point x="207" y="13"/>
      <point x="196" y="2"/>
      <point x="186" y="-5" type="curve" smooth="yes"/>
      <point x="167" y="-18"/>
      <point x="148" y="-27"/>
      <point x="134" y="-28" type="curve" smooth="yes"/>
      <point x="126" y="-28"/>
      <point x="125" y="-28"/>
      <point x="123" y="-26" type="curve" smooth="yes"/>
      <point x="121" y="-24" type="line"/>
      <point x="121" y="774" type="line"/>
      <point x="121" y="1572" type="line"/>
      <point x="49" y="1572" type="line"/>
      <point x="-24" y="1572" type="line"/>
      <point x="-27" y="1574" type="line"/>
      <point x="-29" y="1577"/>
      <point x="-29" y="1577"/>
      <point x="-28" y="1581" type="curve" smooth="yes"/>
      <point x="-27" y="1584"/>
      <point x="-25" y="1588"/>
      <point x="-19" y="1593" type="curve" smooth="yes"/>
      <point x="-6" y="1607"/>
      <point x="17" y="1621"/>
    </contour>
  </outline>
</glyph>
<glyph name="U" format="1">
  <advance width="680"/>
  <unicode hex="0055"/>
  <outline>
    <contour>
      <point x="119" y="1628" type="curve" smooth="yes"/>
      <point x="125" y="1629"/>
      <point x="131" y="1629"/>
      <point x="133" y="1626" type="curve"/>
      <point x="135" y="1625"/>
      <point x="135" y="1616"/>
      <point x="135" y="1052" type="curve" smooth="yes"/>
      <point x="135" y="572"/>
      <point x="135" y="478"/>
      <point x="134" y="476" type="curve" smooth="yes"/>
      <point x="132" y="471"/>
      <point x="124" y="463"/>
      <point x="113" y="454" type="curve" smooth="yes"/>
      <point x="58" y="410"/>
      <point x="28" y="343"/>
      <point x="31" y="270" type="curve" smooth="yes"/>
      <point x="36" y="151"/>
      <point x="117" y="54"/>
      <point x="230" y="34" type="curve"/>
      <point x="280" y="24"/>
      <point x="334" y="31"/>
      <point x="363" y="49" type="curve" smooth="yes"/>
      <point x="387" y="65"/>
      <point x="414" y="100"/>
      <point x="429" y="136" type="curve" smooth="yes"/>
      <point x="438" y="156"/>
      <point x="443" y="175"/>
      <point x="447" y="199" type="curve" smooth="yes"/>
      <point x="449" y="215"/>
      <point x="449" y="251"/>
      <point x="447" y="267" type="curve" smooth="yes"/>
      <point x="441" y="304"/>
      <point x="429" y="337"/>
      <point x="409" y="366" type="curve" smooth="yes"/>
      <point x="394" y="388"/>
      <point x="379" y="405"/>
      <point x="356" y="424" type="curve" smooth="yes"/>
      <point x="345" y="433" type="line"/>
      <point x="345" y="1006" type="line"/>
      <point x="345" y="1580" type="line"/>
      <point x="348" y="1585" type="line" smooth="yes"/>
      <point x="354" y="1595"/>
      <point x="373" y="1610"/>
      <point x="392" y="1618" type="curve"/>
      <point x="410" y="1627"/>
      <point x="427" y="1631"/>
      <point x="432" y="1627" type="curve" smooth="yes"/>
      <point x="434" y="1625" type="line"/>
      <point x="434" y="1054" type="line"/>
      <point x="434" y="483" type="line"/>
      <point x="443" y="476" type="line"/>
      <point x="495" y="432"/>
      <point x="526" y="379"/>
      <point x="536" y="314" type="curve" smooth="yes"/>
      <point x="538" y="298"/>
      <point x="538" y="259"/>
      <point x="536" y="243" type="curve" smooth="yes"/>
      <point x="522" y="151"/>
      <point x="469" y="76"/>
      <point x="381" y="24" type="curve"/>
      <point x="307" y="-21"/>
      <point x="228" y="-37"/>
      <point x="153" y="-24" type="curve"/>
      <point x="75" y="-9"/>
      <point x="8" y="40"/>
      <point x="-28" y="112" type="curve"/>
      <point x="-67" y="187"/>
      <point x="-68" y="274"/>
      <point x="-31" y="348" type="curve" smooth="yes"/>
      <point x="-16" y="378"/>
      <point x="3" y="404"/>
      <point x="32" y="431" type="curve"/>
      <point x="46" y="445" type="line"/>
      <point x="46" y="1012" type="line"/>
      <point x="46" y="1580" type="line"/>
      <point x="49" y="1585" type="line" smooth="yes"/>
      <point x="58" y="1601"/>
      <point x="94" y="1623"/>
    </contour>
  </outline>
</glyph>
<glyph name="V" format="1">
  <advance width="530"/>
  <unicode hex="0056"/>
  <outline>
    <contour>
      <point x="44" y="1628" type="curve" smooth="yes"/>
      <point x="50" y="1629"/>
      <point x="56" y="1629"/>
      <point x="58" y="1626" type="curve"/>
      <point x="60" y="1625"/>
      <point x="66" y="1560"/>
      <point x="113" y="1056" type="curve" smooth="yes"/>
      <point x="142" y="743"/>
      <point x="166" y="485"/>
      <point x="167" y="484" type="curve"/>
      <point x="167" y="482"/>
      <point x="188" y="701"/>
      <point x="219" y="1030" type="curve" smooth="yes"/>
      <point x="270" y="1578"/>
      <point x="270" y="1579"/>
      <point x="273" y="1584" type="curve" smooth="yes"/>
      <point x="276" y="1591"/>
      <point x="287" y="1601"/>
      <point x="299" y="1608" type="curve"/>
      <point x="322" y="1624"/>
      <point x="351" y="1633"/>
      <point x="357" y="1626" type="curve" smooth="yes"/>
      <point x="359" y="1624" type="line"/>
      <point x="284" y="822" type="line"/>
      <point x="209" y="19" type="line"/>
      <point x="205" y="13" type="line" smooth="yes"/>
      <point x="196" y="0"/>
      <point x="168" y="-19"/>
      <point x="146" y="-25" type="curve" smooth="yes"/>
      <point x="135" y="-29"/>
      <point x="125" y="-29"/>
      <point x="122" y="-25" type="curve" smooth="yes"/>
      <point x="121" y="-23"/>
      <point x="109" y="102"/>
      <point x="46" y="778" type="curve" smooth="yes"/>
      <point x="-29" y="1579" type="line"/>
      <point x="-26" y="1584" type="line"/>
      <point x="-18" y="1600"/>
      <point x="18" y="1623"/>
    </contour>
  </outline>
</glyph>
<glyph name="W" format="1">
  <advance width="790"/>
  <unicode hex="0057"/>
  <outline>
    <contour>
      <point x="74" y="1628" type="curve" smooth="yes"/>
      <point x="80" y="1629"/>
      <point x="86" y="1629"/>
      <point x="88" y="1626" type="curve"/>
      <point x="90" y="1625"/>
      <point x="92" y="1588"/>
      <point x="114" y="1098" type="curve" smooth="yes"/>
      <point x="128" y="808"/>
      <point x="139" y="569"/>
      <point x="139" y="567" type="curve" smooth="yes"/>
      <point x="139" y="564"/>
      <point x="142" y="586"/>
      <point x="145" y="614" type="curve" smooth="yes"/>
      <point x="149" y="653"/>
      <point x="151" y="666"/>
      <point x="153" y="669" type="curve" smooth="yes"/>
      <point x="155" y="674"/>
      <point x="168" y="686"/>
      <point x="178" y="693" type="curve" smooth="yes"/>
      <point x="196" y="705"/>
      <point x="215" y="713"/>
      <point x="228" y="714" type="curve" smooth="yes"/>
      <point x="240" y="715"/>
      <point x="238" y="720"/>
      <point x="247" y="645" type="curve"/>
      <point x="250" y="610"/>
      <point x="254" y="583"/>
      <point x="254" y="586" type="curve" smooth="yes"/>
      <point x="254" y="588"/>
      <point x="264" y="813"/>
      <point x="277" y="1085" type="curve" smooth="yes"/>
      <point x="300" y="1579" type="line"/>
      <point x="303" y="1584" type="line" smooth="yes"/>
      <point x="308" y="1594"/>
      <point x="327" y="1609"/>
      <point x="347" y="1618" type="curve"/>
      <point x="365" y="1628"/>
      <point x="383" y="1631"/>
      <point x="387" y="1626" type="curve" smooth="yes"/>
      <point x="389" y="1624" type="line"/>
      <point x="352" y="822" type="line"/>
      <point x="314" y="19" type="line"/>
      <point x="310" y="13" type="line" smooth="yes"/>
      <point x="298" y="-5"/>
      <point x="257" y="-28"/>
      <point x="236" y="-28" type="curve" smooth="yes"/>
      <point x="230" y="-28"/>
      <point x="229" y="-28"/>
      <point x="227" y="-26" type="curve" smooth="yes"/>
      <point x="226" y="-24"/>
      <point x="223" y="-1"/>
      <point x="209" y="128" type="curve" smooth="yes"/>
      <point x="200" y="211"/>
      <point x="192" y="277"/>
      <point x="192" y="276" type="curve" smooth="yes"/>
      <point x="192" y="274"/>
      <point x="186" y="215"/>
      <point x="178" y="146" type="curve" smooth="yes"/>
      <point x="164" y="19" type="line"/>
      <point x="160" y="13" type="line" smooth="yes"/>
      <point x="151" y="0"/>
      <point x="123" y="-19"/>
      <point x="101" y="-25" type="curve" smooth="yes"/>
      <point x="90" y="-29"/>
      <point x="80" y="-29"/>
      <point x="77" y="-25" type="curve" smooth="yes"/>
      <point x="75" y="-23"/>
      <point x="71" y="61"/>
      <point x="38" y="778" type="curve" smooth="yes"/>
      <point x="1" y="1579" type="line"/>
      <point x="4" y="1584" type="line"/>
      <point x="12" y="1600"/>
      <point x="49" y="1623"/>
    </contour>
  </outline>
</glyph>
<glyph name="X" format="1">
  <advance width="590"/>
  <unicode hex="0058"/>
  <outline>
    <contour>
      <point x="74" y="1628" type="curve" smooth="yes"/>
      <point x="80" y="1629"/>
      <point x="86" y="1629"/>
      <point x="88" y="1626" type="curve" smooth="yes"/>
      <point x="89" y="1625"/>
      <point x="102" y="1560"/>
      <point x="144" y="1335" type="curve" smooth="yes"/>
      <point x="174" y="1175"/>
      <point x="198" y="1043"/>
      <point x="199" y="1042" type="curve" smooth="yes"/>
      <point x="199" y="1041"/>
      <point x="218" y="1141"/>
      <point x="250" y="1310" type="curve" smooth="yes"/>
      <point x="293" y="1541"/>
      <point x="301" y="1580"/>
      <point x="303" y="1584" type="curve" smooth="yes"/>
      <point x="306" y="1591"/>
      <point x="317" y="1601"/>
      <point x="329" y="1608" type="curve"/>
      <point x="352" y="1624"/>
      <point x="381" y="1633"/>
      <point x="387" y="1626" type="curve" smooth="yes"/>
      <point x="389" y="1624" type="line"/>
      <point x="315" y="1223" type="line"/>
      <point x="240" y="823" type="line"/>
      <point x="314" y="422" type="line"/>
      <point x="382" y="62"/>
      <point x="389" y="22"/>
      <point x="388" y="19" type="curve" smooth="yes"/>
      <point x="386" y="14"/>
      <point x="376" y="2"/>
      <point x="365" y="-5" type="curve" smooth="yes"/>
      <point x="347" y="-18"/>
      <point x="327" y="-27"/>
      <point x="313" y="-28" type="curve" smooth="yes"/>
      <point x="304" y="-28"/>
      <point x="301" y="-27"/>
      <point x="300" y="-22" type="curve" smooth="yes"/>
      <point x="299" y="-20"/>
      <point x="275" y="110"/>
      <point x="246" y="268" type="curve" smooth="yes"/>
      <point x="216" y="426"/>
      <point x="192" y="556"/>
      <point x="191" y="557" type="curve"/>
      <point x="191" y="559"/>
      <point x="177" y="488"/>
      <point x="140" y="290" type="curve" smooth="yes"/>
      <point x="112" y="142"/>
      <point x="89" y="19"/>
      <point x="89" y="17" type="curve" smooth="yes"/>
      <point x="85" y="9"/>
      <point x="67" y="-6"/>
      <point x="50" y="-16" type="curve"/>
      <point x="28" y="-27"/>
      <point x="6" y="-32"/>
      <point x="2" y="-25" type="curve" smooth="yes"/>
      <point x="1" y="-23"/>
      <point x="16" y="56"/>
      <point x="76" y="377" type="curve" smooth="yes"/>
      <point x="150" y="777" type="line"/>
      <point x="76" y="1178" type="line"/>
      <point x="1" y="1578" type="line"/>
      <point x="3" y="1584" type="line"/>
      <point x="12" y="1600"/>
      <point x="48" y="1623"/>
    </contour>
  </outline>
</glyph>
<glyph name="Y" format="1">
  <advance width="530"/>
  <unicode hex="0059"/>
  <outline>
    <contour>
      <point x="44" y="1628" type="curve" smooth="yes"/>
      <point x="50" y="1629"/>
      <point x="56" y="1629"/>
      <point x="58" y="1626" type="curve"/>
      <point x="60" y="1625"/>
      <point x="70" y="1561"/>
      <point x="114" y="1293" type="curve" smooth="yes"/>
      <point x="144" y="1111"/>
      <point x="169" y="962"/>
      <point x="169" y="963" type="curve" smooth="yes"/>
      <point x="169" y="963"/>
      <point x="192" y="1102"/>
      <point x="220" y="1272" type="curve" smooth="yes"/>
      <point x="277" y="1618"/>
      <point x="270" y="1584"/>
      <point x="282" y="1596" type="curve"/>
      <point x="306" y="1617"/>
      <point x="349" y="1635"/>
      <point x="357" y="1626" type="curve" smooth="yes"/>
      <point x="359" y="1624" type="line"/>
      <point x="285" y="1167" type="line"/>
      <point x="210" y="711" type="line"/>
      <point x="210" y="366" type="line" smooth="yes"/>
      <point x="210" y="75"/>
      <point x="210" y="20"/>
      <point x="209" y="18" type="curve" smooth="yes"/>
      <point x="207" y="13"/>
      <point x="196" y="2"/>
      <point x="186" y="-5" type="curve" smooth="yes"/>
      <point x="167" y="-18"/>
      <point x="148" y="-27"/>
      <point x="134" y="-28" type="curve" smooth="yes"/>
      <point x="126" y="-28"/>
      <point x="125" y="-28"/>
      <point x="123" y="-26" type="curve" smooth="yes"/>
      <point x="121" y="-24" type="line"/>
      <point x="121" y="319" type="line"/>
      <point x="121" y="662" type="line"/>
      <point x="46" y="1120" type="line"/>
      <point x="-29" y="1578" type="line"/>
      <point x="-27" y="1584" type="line"/>
      <point x="-18" y="1600"/>
      <point x="18" y="1623"/>
    </contour>
  </outline>
</glyph>
<glyph name="Z" format="1">
  <advance width="590"/>
  <unicode hex="005A"/>
  <outline>
    <contour>
      <point x="66" y="1626" type="curve"/>
      <point x="75" y="1629" type="line"/>
      <point x="230" y="1629" type="line"/>
      <point x="385" y="1629" type="line"/>
      <point x="387" y="1627" type="line" smooth="yes"/>
      <point x="389" y="1625"/>
      <point x="389" y="1624"/>
      <point x="389" y="1621" type="curve" smooth="yes"/>
      <point x="387" y="1614"/>
      <point x="92" y="32"/>
      <point x="91" y="31" type="curve"/>
      <point x="91" y="29"/>
      <point x="98" y="29"/>
      <point x="238" y="29" type="curve" smooth="yes"/>
      <point x="384" y="29"/>
      <point x="385" y="29"/>
      <point x="387" y="27" type="curve" smooth="yes"/>
      <point x="388" y="26"/>
      <point x="389" y="24"/>
      <point x="389" y="23" type="curve" smooth="yes"/>
      <point x="389" y="12"/>
      <point x="361" y="-11"/>
      <point x="335" y="-21" type="curve" smooth="yes"/>
      <point x="318" y="-28"/>
      <point x="331" y="-28"/>
      <point x="160" y="-28" type="curve" smooth="yes"/>
      <point x="6" y="-28" type="line"/>
      <point x="3" y="-26" type="line"/>
      <point x="1" y="-23" type="line"/>
      <point x="149" y="773" type="line" smooth="yes"/>
      <point x="231" y="1211"/>
      <point x="298" y="1570"/>
      <point x="299" y="1571" type="curve" smooth="yes"/>
      <point x="299" y="1572"/>
      <point x="269" y="1572"/>
      <point x="153" y="1572" type="curve" smooth="yes"/>
      <point x="6" y="1572" type="line"/>
      <point x="3" y="1574" type="line"/>
      <point x="1" y="1577"/>
      <point x="1" y="1577"/>
      <point x="2" y="1581" type="curve" smooth="yes"/>
      <point x="3" y="1584"/>
      <point x="5" y="1588"/>
      <point x="11" y="1593" type="curve" smooth="yes"/>
      <point x="24" y="1607"/>
      <point x="47" y="1621"/>
    </contour>
  </outline>
</glyph>
